<svg width="1152" height="663" viewBox="0 0 1152 663" fill="none" xmlns="http://www.w3.org/2000/svg">
<g opacity="0.273717" filter="url(#filter0_f)">
<path d="M1115.81 331.585C1115.81 494.751 874.065 627.191 575.915 627.191C277.765 627.191 36.021 494.963 35.809 331.797C35.809 168.631 277.553 36.1907 575.703 36.1907C874.065 36.1907 1115.81 168.419 1115.81 331.585Z" fill="url(#paint0_radial)"/>
</g>
<g opacity="0.273717" filter="url(#filter1_f)">
<path d="M851.809 331.191C851.809 414.538 728.293 482.191 575.915 482.191C423.537 482.191 299.809 414.538 299.809 331.191C299.809 247.844 423.325 180.191 575.703 180.191C728.081 180.191 851.809 247.844 851.809 331.191Z" fill="url(#paint1_radial)"/>
</g>
<g opacity="0.3">
<path d="M545.545 357.582L545.354 356.817C531.22 308.627 490.917 267.896 442.783 253.362C395.032 238.829 340.976 249.538 302.011 280.899L301.438 280.134C340.594 248.39 395.032 237.682 443.165 252.406C491.299 266.939 531.602 307.48 546.118 355.669C568.657 333.869 600.746 320.101 636.656 317.041C669.891 314.173 703.317 322.969 731.013 341.518L730.44 342.283C702.935 323.925 669.7 315.32 636.656 317.997C600.555 321.057 568.466 334.825 546.118 356.817L545.545 357.582Z" fill="#ECEFFF"/>
<path d="M303.539 282.62C302.393 283.576 300.674 283.385 299.719 282.238C298.764 281.09 298.955 279.369 300.101 278.413C301.247 277.457 302.966 277.648 303.921 278.795C304.876 279.943 304.685 281.664 303.539 282.62Z" fill="white"/>
<path d="M729.103 344.196C730.44 344.961 731.968 344.578 732.732 343.431C733.496 342.092 733.114 340.562 731.968 339.797C730.631 339.032 729.103 339.415 728.339 340.562C727.575 341.71 727.957 343.431 729.103 344.196Z" fill="white"/>
<path d="M745.721 300.022C729.676 253.936 693.958 213.395 647.352 188.536C603.994 165.397 552.04 155.645 497.412 160.043C421.582 166.353 347.28 200.774 293.416 254.51L292.652 253.745C346.707 199.627 421.2 165.206 497.221 158.895C552.04 154.306 604.185 164.25 647.734 187.58C694.531 212.439 730.631 253.362 746.676 299.639L745.721 300.022Z" fill="#ECEFFF"/>
<path d="M294.944 256.039C293.798 256.996 292.27 256.996 291.124 256.039C290.169 254.892 290.169 253.362 291.124 252.215C292.27 251.259 293.798 251.259 294.944 252.215C296.09 253.362 296.09 255.083 294.944 256.039Z" fill="white"/>
<path d="M743.62 300.787C744.193 302.126 745.721 302.89 747.058 302.317C748.395 301.743 749.159 300.213 748.586 298.875C748.013 297.536 746.485 296.771 745.148 297.345C743.811 297.727 743.047 299.257 743.62 300.787Z" fill="white"/>
<path d="M361.223 430.439L360.268 430.057C372.111 400.225 396.942 374.983 426.548 362.745C456.154 350.506 491.49 350.697 520.905 363.318L520.523 364.275C491.299 351.654 456.154 351.462 426.93 363.701C397.706 375.748 373.066 400.799 361.223 430.439Z" fill="#ECEFFF"/>
<path d="M363.324 431.013C362.751 432.352 361.223 433.117 359.886 432.543C358.549 431.969 357.785 430.439 358.358 429.101C358.931 427.762 360.459 426.997 361.796 427.571C363.133 428.145 363.897 429.674 363.324 431.013Z" fill="white"/>
<path d="M519.568 365.996C520.905 366.569 522.433 365.996 523.006 364.657C523.579 363.318 523.006 361.789 521.669 361.215C520.332 360.641 518.804 361.215 518.231 362.554C517.658 363.892 518.231 365.422 519.568 365.996Z" fill="white"/>
<path d="M504.479 335.973L503.524 335.782C507.344 311.878 519.186 289.504 536.568 272.868C553.95 256.231 576.87 245.522 600.746 242.654L600.937 243.61C577.061 246.478 554.523 256.996 537.332 273.633C519.95 290.078 508.299 312.261 504.479 335.973Z" fill="#ECEFFF"/>
<path d="M506.771 336.164C506.58 337.694 505.052 338.65 503.715 338.268C502.187 338.076 501.232 336.546 501.614 335.208C501.805 333.678 503.333 332.722 504.67 333.104C506.007 333.296 506.962 334.825 506.771 336.164Z" fill="white"/>
<path d="M601.128 245.904C602.656 245.713 603.612 244.374 603.421 242.845C603.23 241.315 601.892 240.359 600.364 240.55C598.836 240.741 597.881 242.08 598.072 243.61C598.263 244.948 599.6 246.095 601.128 245.904Z" fill="white"/>
<path d="M862.044 309.583C828.618 281.09 786.214 264.836 742.474 263.689C698.733 262.541 655.374 276.692 620.611 303.464L620.038 302.699C654.992 275.927 698.542 261.585 742.474 262.733C786.405 263.88 829.191 280.326 862.808 308.819L862.044 309.583Z" fill="#ECEFFF"/>
<path d="M622.139 304.994C620.993 305.95 619.274 305.568 618.319 304.42C617.364 303.273 617.746 301.552 618.892 300.596C620.038 299.639 621.757 300.022 622.712 301.169C623.476 302.508 623.285 304.038 622.139 304.994Z" fill="white"/>
<path d="M860.516 311.113C861.662 312.069 863.381 311.878 864.336 310.731C865.291 309.583 865.1 307.862 863.954 306.906C862.808 305.95 861.089 306.141 860.134 307.289C859.37 308.436 859.37 310.157 860.516 311.113Z" fill="white"/>
<path d="M874.46 465.625C838.932 424.511 785.259 399.843 731.013 399.843C730.822 399.843 730.822 399.843 730.631 399.843C676.576 399.843 622.903 424.129 587.185 465.052L586.421 464.478C622.33 423.364 676.194 398.887 730.631 398.887C730.822 398.887 730.822 398.887 731.013 398.887C785.641 399.078 839.506 423.746 875.224 465.052L874.46 465.625Z" fill="#ECEFFF"/>
<path d="M588.904 466.39C587.949 467.538 586.23 467.538 585.084 466.581C583.938 465.625 583.938 463.904 584.893 462.757C585.848 461.61 587.567 461.61 588.713 462.566C589.668 463.522 589.859 465.243 588.904 466.39Z" fill="white"/>
<path d="M872.55 466.964C873.505 468.111 875.224 468.111 876.37 467.155C877.516 466.199 877.516 464.478 876.561 463.331C875.606 462.183 873.887 462.183 872.741 463.139C871.786 464.287 871.595 465.817 872.55 466.964Z" fill="white"/>
<path d="M734.26 321.631C726.62 290.652 702.362 264.262 672.374 254.127C642.386 243.992 607.05 250.303 582.41 270.382L581.837 269.617C606.859 249.347 642.577 243.036 672.756 253.171C703.126 263.497 727.575 290.269 735.215 321.439L734.26 321.631Z" fill="#ECEFFF"/>
<path d="M583.938 272.103C582.792 273.059 581.073 272.868 580.118 271.72C579.163 270.573 579.354 268.852 580.5 267.896C581.646 266.94 583.365 267.131 584.32 268.278C585.275 269.425 585.084 271.147 583.938 272.103Z" fill="#FECE00"/>
<path d="M731.968 322.013C732.35 323.352 733.687 324.308 735.216 323.925C736.553 323.543 737.508 322.204 737.126 320.675C736.744 319.336 735.407 318.38 733.878 318.762C732.541 319.145 731.586 320.675 731.968 322.013Z" fill="white"/>
<path d="M759.091 323.925L758.136 323.543C764.631 302.508 779.338 283.767 798.057 272.485C816.967 261.203 840.079 256.804 861.853 260.82L861.662 261.776C840.27 257.76 817.158 261.967 798.63 273.25C779.911 284.724 765.586 303.081 759.091 323.925Z" fill="#ECEFFF"/>
<path d="M761.193 324.499C760.811 325.838 759.282 326.603 757.754 326.22C756.417 325.838 755.653 324.308 756.035 322.778C756.417 321.439 757.945 320.674 759.473 321.057C761.002 321.631 761.766 323.16 761.193 324.499Z" fill="white"/>
<path d="M861.089 264.262C862.617 264.453 863.954 263.497 864.145 261.967C864.337 260.438 863.381 259.099 861.853 258.908C860.325 258.717 858.988 259.673 858.797 261.203C858.606 262.541 859.561 263.88 861.089 264.262Z" fill="white"/>
<path d="M259.416 301.743L258.652 300.978C290.933 264.262 337.347 239.594 385.863 233.283C434.379 226.973 485.378 239.211 526.063 266.557L525.49 267.322C485.187 239.976 434.379 227.929 386.054 234.239C337.729 240.55 291.506 265.218 259.416 301.743Z" fill="#ECEFFF"/>
<path d="M261.136 303.081C260.18 304.229 258.461 304.229 257.315 303.273C256.169 302.316 256.169 300.595 257.124 299.448C258.079 298.301 259.798 298.301 260.945 299.257C262.091 300.404 262.091 302.125 261.136 303.081Z" fill="white"/>
<path d="M523.961 269.234C525.107 269.999 526.827 269.617 527.591 268.469C528.355 267.322 527.973 265.601 526.827 264.836C525.681 264.071 523.961 264.453 523.197 265.601C522.433 266.748 522.815 268.469 523.961 269.234Z" fill="white"/>
<path d="M262.091 217.029L261.135 216.647C269.731 192.361 287.495 171.134 309.842 158.322C332.19 145.51 359.313 140.92 384.717 145.701L384.526 146.657C359.504 141.876 332.381 146.466 310.415 159.087C288.259 171.899 270.686 192.934 262.091 217.029Z" fill="#ECEFFF"/>
<path d="M264.192 217.794C263.619 219.132 262.091 219.897 260.754 219.324C259.416 218.75 258.652 217.22 259.225 215.881C259.798 214.543 261.327 213.778 262.664 214.352C264.192 214.734 264.765 216.264 264.192 217.794Z" fill="white"/>
<path d="M383.953 148.952C385.481 149.143 386.818 148.187 387.009 146.657C387.2 145.127 386.245 143.788 384.717 143.597C383.189 143.406 381.852 144.362 381.661 145.892C381.47 147.422 382.616 148.76 383.953 148.952Z" fill="white"/>
<path d="M640.667 231.371L639.903 230.606C671.037 199.054 712.104 177.062 755.653 168.84C799.203 160.617 845.427 165.971 885.92 183.947L885.538 184.903C845.236 166.927 799.203 161.573 755.844 169.796C712.677 178.019 671.801 199.819 640.667 231.371Z" fill="#ECEFFF"/>
<path d="M642.386 232.901C641.24 233.857 639.712 233.857 638.566 232.901C637.611 231.754 637.611 230.224 638.566 229.076C639.712 228.12 641.24 228.12 642.386 229.076C643.532 230.033 643.532 231.754 642.386 232.901Z" fill="white"/>
<path d="M884.774 186.815C886.111 187.389 887.639 186.815 888.212 185.285C888.785 183.946 888.212 182.417 886.684 181.843C885.156 181.269 883.819 181.843 883.246 183.373C882.673 184.711 883.437 186.241 884.774 186.815Z" fill="white"/>
<path d="M776.282 259.482L775.327 259.29C780.866 239.785 795.956 222.957 814.675 215.499C833.393 208.041 855.932 209.954 873.314 220.471L872.741 221.427C855.741 211.101 833.584 209.189 815.057 216.455C796.529 223.722 781.63 240.168 776.282 259.482Z" fill="#ECEFFF"/>
<path d="M778.383 259.864C778.001 261.203 776.473 262.159 775.136 261.776C773.799 261.394 772.844 259.864 773.226 258.526C773.608 257.187 775.136 256.231 776.473 256.613C778.001 256.996 778.765 258.526 778.383 259.864Z" fill="white"/>
<path d="M871.404 223.148C872.741 223.913 874.269 223.531 875.033 222.192C875.797 220.854 875.415 219.324 874.078 218.559C872.741 217.794 871.213 218.176 870.449 219.515C869.685 220.662 870.067 222.383 871.404 223.148Z" fill="white"/>
<path d="M583.365 199.245C567.129 173.429 539.433 154.115 509.636 147.804C479.839 141.494 446.795 147.996 421.582 165.015L421.009 164.25C446.604 147.039 479.839 140.538 509.827 146.848C540.006 153.159 567.702 172.473 584.129 198.671L583.365 199.245Z" fill="#ECEFFF"/>
<path d="M422.919 166.927C421.773 167.692 420.054 167.501 419.29 166.162C418.525 165.015 418.717 163.294 420.054 162.529C421.2 161.764 422.919 161.955 423.683 163.294C424.447 164.441 424.065 166.162 422.919 166.927Z" fill="white"/>
<path d="M581.455 200.392C582.219 201.731 583.938 201.922 585.084 201.157C586.421 200.392 586.612 198.671 585.848 197.524C585.084 196.185 583.365 195.994 582.219 196.759C581.073 197.524 580.691 199.053 581.455 200.392Z" fill="white"/>
<path d="M398.279 426.233L397.515 425.659C408.02 409.978 423.492 397.357 440.873 390.09C458.255 383.015 478.12 381.103 496.647 384.927L496.456 385.883C478.12 382.059 458.446 383.78 441.255 390.855C424.065 398.122 408.784 410.552 398.279 426.233Z" fill="#ECEFFF"/>
<path d="M400.189 427.38C399.425 428.527 397.706 428.91 396.56 428.145C395.414 427.38 395.032 425.659 395.796 424.511C396.56 423.364 398.279 422.982 399.425 423.747C400.762 424.511 401.144 426.041 400.189 427.38Z" fill="white"/>
<path d="M495.883 388.178C497.412 388.369 498.749 387.604 498.94 386.075C499.131 384.545 498.367 383.206 496.839 383.015C495.31 382.824 493.973 383.589 493.782 385.118C493.591 386.457 494.546 387.987 495.883 388.178Z" fill="white"/>
<path d="M578.59 409.213L577.826 408.639C593.488 385.883 616.6 368.481 642.577 359.494C668.554 350.506 697.396 350.315 723.755 358.537L723.373 359.494C697.205 351.271 668.745 351.653 642.768 360.45C616.982 369.246 594.252 386.648 578.59 409.213Z" fill="#ECEFFF"/>
<path d="M580.5 410.36C579.545 411.508 578.017 411.89 576.679 410.934C575.533 409.978 575.151 408.448 576.106 407.11C577.062 405.771 578.59 405.58 579.927 406.536C581.264 407.492 581.264 409.213 580.5 410.36Z" fill="white"/>
<path d="M722.609 361.597C723.946 361.98 725.474 361.215 725.856 359.685C726.238 358.346 725.474 356.817 723.946 356.434C722.609 356.052 721.081 356.817 720.699 358.346C720.508 359.685 721.272 361.215 722.609 361.597Z" fill="white"/>
<path d="M361.032 390.855H360.077C360.841 361.406 347.28 331.192 324.741 312.452C302.202 293.52 270.304 285.489 241.462 291.608L241.271 290.652C270.495 284.532 302.775 292.755 325.505 311.687C348.235 330.81 361.796 361.024 361.032 390.855Z" fill="#ECEFFF"/>
<path d="M242.035 293.711C240.507 294.094 239.17 293.138 238.788 291.608C238.406 290.078 239.361 288.739 240.889 288.357C242.417 287.975 243.754 288.931 244.136 290.461C244.327 291.99 243.372 293.329 242.035 293.711Z" fill="white"/>
<path d="M357.785 390.664C357.785 392.194 358.931 393.341 360.459 393.341C361.987 393.341 363.133 392.194 363.133 390.664C363.133 389.134 361.987 387.987 360.459 387.987C359.122 387.987 357.976 389.325 357.785 390.664Z" fill="white"/>
<path d="M505.243 371.541C488.434 325.647 454.244 285.871 411.649 262.35C369.055 238.638 317.292 230.989 269.54 240.933L269.349 239.976C317.292 230.033 369.437 237.873 412.222 261.585C455.008 285.297 489.198 325.264 506.198 371.35L505.243 371.541Z" fill="#ECEFFF"/>
<path d="M270.113 242.845C268.585 243.036 267.248 242.271 267.057 240.741C266.866 239.212 267.63 237.873 269.158 237.682C270.686 237.299 272.023 238.255 272.214 239.785C272.596 241.124 271.641 242.654 270.113 242.845Z" fill="white"/>
<path d="M503.142 372.115C503.715 373.454 505.243 374.219 506.58 373.645C507.917 373.071 508.681 371.541 508.108 370.203C507.535 368.864 506.007 368.099 504.67 368.673C503.333 369.247 502.569 370.776 503.142 372.115Z" fill="white"/>
<path d="M546.118 250.303L545.354 249.538C574.005 223.722 611.061 207.85 649.453 204.599C687.846 201.348 727.002 211.101 759.473 231.753L758.9 232.518C726.429 212.057 687.655 202.496 649.453 205.555C611.443 208.806 574.769 224.678 546.118 250.303Z" fill="#ECEFFF"/>
<path d="M547.646 251.832C546.5 252.789 544.781 252.597 543.826 251.45C542.871 250.303 543.062 248.582 544.208 247.625C545.354 246.669 547.073 246.86 548.028 248.008C548.983 249.155 548.792 250.876 547.646 251.832Z" fill="white"/>
<path d="M757.754 234.431C759.091 235.196 760.62 234.813 761.384 233.475C762.148 232.136 761.766 230.606 760.429 229.841C759.091 229.076 757.563 229.459 756.799 230.797C756.035 231.945 756.608 233.666 757.754 234.431Z" fill="white"/>
<path d="M698.924 298.492L698.16 297.918C718.98 269.425 753.743 251.832 788.889 251.641C789.08 251.641 789.08 251.641 789.271 251.641C824.225 251.641 858.988 269.043 879.999 297.153L879.235 297.727C858.415 269.808 824.034 252.597 789.271 252.597C789.08 252.597 789.08 252.597 788.889 252.597C753.934 252.788 719.553 270.381 698.924 298.492Z" fill="#ECEFFF"/>
<path d="M881.527 295.815C882.482 296.962 882.1 298.683 880.954 299.639C879.808 300.596 878.089 300.213 877.134 299.066C876.179 297.918 876.561 296.197 877.707 295.241C879.044 294.285 880.572 294.667 881.527 295.815Z" fill="white"/>
<path d="M696.441 296.389C695.486 297.536 695.868 299.257 697.014 300.213C698.16 301.169 699.879 300.787 700.834 299.639C701.789 298.492 701.407 296.771 700.261 295.815C698.924 295.05 697.396 295.241 696.441 296.389Z" fill="white"/>
</g>
<defs>
<filter id="filter0_f" x="0.471325" y="0.853008" width="1150.68" height="661.675" filterUnits="userSpaceOnUse" color-interpolation-filters="sRGB">
<feFlood flood-opacity="0" result="BackgroundImageFix"/>
<feBlend mode="normal" in="SourceGraphic" in2="BackgroundImageFix" result="shape"/>
<feGaussianBlur stdDeviation="17.6688" result="effect1_foregroundBlur"/>
</filter>
<filter id="filter1_f" x="267.19" y="147.571" width="617.239" height="367.239" filterUnits="userSpaceOnUse" color-interpolation-filters="sRGB">
<feFlood flood-opacity="0" result="BackgroundImageFix"/>
<feBlend mode="normal" in="SourceGraphic" in2="BackgroundImageFix" result="shape"/>
<feGaussianBlur stdDeviation="16.3097" result="effect1_foregroundBlur"/>
</filter>
<radialGradient id="paint0_radial" cx="0" cy="0" r="1" gradientUnits="userSpaceOnUse" gradientTransform="translate(575.969 331.655) rotate(-0.0118674) scale(539.975 295.487)">
<stop stop-color="#463BE4" stop-opacity="0.808758"/>
<stop offset="0.0696114" stop-color="#3840E0" stop-opacity="0.491614"/>
<stop offset="0.6853" stop-color="#413FE2" stop-opacity="0.658353"/>
<stop offset="1" stop-color="#3E54D2" stop-opacity="0.640024"/>
</radialGradient>
<radialGradient id="paint1_radial" cx="0" cy="0" r="1" gradientUnits="userSpaceOnUse" gradientTransform="translate(575.762 331.261) rotate(-0.0118676) scale(276.026 151.014)">
<stop stop-color="#6337E8" stop-opacity="0.01"/>
<stop offset="0.0696114" stop-color="#503EE2" stop-opacity="0.574082"/>
<stop offset="0.6853" stop-color="#4A42DF" stop-opacity="0.359375"/>
<stop offset="1" stop-color="#413EE2"/>
</radialGradient>
</defs>
</svg>
